<svg xmlns="http://www.w3.org/2000/svg" viewBox="0 0 480 240" role="img" aria-label="Los tres mensajeros parten al mismo tiempo hacia AWS, Azure y GCP">
  <rect x="0" y="0" width="480" height="240" fill="#eef4ff"/>

  <g transform="translate(30,70)">
    <g fill="#2f3b76">
      <polygon points="10,140 10,70 50,70 50,140"/>
      <polygon points="50,140 50,40 92,40 92,140"/>
      <polygon points="92,140 92,70 132,70 132,140"/>
      <rect x="60" y="88" width="30" height="52" rx="3" fill="#5a2a2a"/>
    </g>
    <g fill="#f2b93b">
      <polygon points="50,40 58,30 66,40"/>
      <polygon points="10,54 26,54 10,66"/>
      <polygon points="92,54 108,54 92,66"/>
    </g>
    <rect x="0" y="180" width="162" height="12" fill="#8a6d1a"/>
  </g>

  <g stroke="#3a4a8f" stroke-width="2" stroke-dasharray="6 6" opacity="0.6">
    <path d="M120 190 Q240 150 350 160" fill="none"/>
    <path d="M120 198 Q260 200 350 200" fill="none"/>
    <path d="M120 206 Q240 250 350 240" fill="none"/>
  </g>

  <g font-family="sans-serif" font-size="11" font-weight="700">
    <g transform="translate(352,140)">
      <rect x="0" y="0" width="88" height="40" rx="10" fill="#ff7a59"/>
      <ellipse cx="24" cy="22" rx="13" ry="9" fill="#fff" opacity="0.9"/>
      <ellipse cx="56" cy="18" rx="15" ry="8" fill="#fff" opacity="0.9"/>
      <ellipse cx="42" cy="12" rx="10" ry="6" fill="#fff" opacity="0.9"/>
      <text x="16" y="58" fill="#fff" text-anchor="middle">AWS</text>
    </g>
    <g transform="translate(352,184)">
      <rect x="0" y="0" width="88" height="40" rx="10" fill="#2fa8a0"/>
      <ellipse cx="24" cy="22" rx="13" ry="9" fill="#fff" opacity="0.9"/>
      <ellipse cx="56" cy="18" rx="15" ry="8" fill="#fff" opacity="0.9"/>
      <ellipse cx="42" cy="12" rx="10" ry="6" fill="#fff" opacity="0.9"/>
      <text x="18" y="58" fill="#fff" text-anchor="middle">AZURE</text>
    </g>
    <g transform="translate(352,228)">
      <rect x="0" y="0" width="88" height="40" rx="10" fill="#4285f4"/>
      <ellipse cx="24" cy="22" rx="13" ry="9" fill="#fff" opacity="0.9"/>
      <ellipse cx="56" cy="18" rx="15" ry="8" fill="#fff" opacity="0.9"/>
      <ellipse cx="42" cy="12" rx="10" ry="6" fill="#fff" opacity="0.9"/>
      <text x="16" y="58" fill="#fff" text-anchor="middle">GCP</text>
    </g>
  </g>

  <g fill="#e25563">
    <circle cx="188" cy="152" r="11"/>
    <circle cx="250" cy="200" r="11"/>
    <circle cx="214" cy="236" r="11"/>
  </g>
  <g stroke="#e25563" stroke-width="3" stroke-linecap="round" fill="none">
    <path d="M205 152 h24 M252 200 h24 M292 200 h24 M214 236 h24"/>
  </g>

  <text x="240" y="20" text-anchor="middle" font-family="serif" font-size="16" font-style="italic" fill="#24316b">⚡ Los tres mensajeros salen al mismo tiempo</text>
</svg>